<?xml version="1.0" encoding="UTF-8"?>
<!DOCTYPE svg PUBLIC "-//W3C//DTD SVG 1.1//EN" "http://www.w3.org/Graphics/SVG/1.1/DTD/svg11.dtd">
<svg xmlns="http://www.w3.org/2000/svg" xml:space="preserve" width="59.9639mm" height="17mm" version="1.1" style="shape-rendering:geometricPrecision; text-rendering:geometricPrecision; image-rendering:optimizeQuality; fill-rule:evenodd; clip-rule:evenodd"
viewBox="0 0 343.79 97.47"
 xmlns:xlink="http://www.w3.org/1999/xlink">
 <defs>
  <style type="text/css">
   <![CDATA[
    .fil1 {fill:black;fill-rule:nonzero}
    .fil0 {fill:#FFB500;fill-rule:nonzero}
   ]]>
  </style>
 </defs>
 <g id="Слой_x0020_1">
  <metadata id="CorelCorpID_0Corel-Layer"/>
  <g id="_2529855491536">
   <g>
    <polygon class="fil0" points="54.61,24.01 41.75,24.01 24.59,66.23 35.6,66.23 48.18,33.62 60.76,66.23 71.76,66.23 "/>
    <path class="fil0" d="M43.53 97.25l-0.09 -0.01 -0.01 -0 -0.01 -0 -0.01 -0 -0.01 -0c-6.47,-0.65 -12.68,-2.61 -18.3,-5.67 -10.83,-5.92 -19.41,-15.96 -23.15,-28.72 -3.75,-12.77 -1.96,-25.85 3.95,-36.67 3.04,-5.57 7.18,-10.55 12.22,-14.58l0.1 -0.08c0,-0 0.01,-0.01 0.01,-0.01 7.46,-6.11 16.59,-10.18 26.48,-11.46 0.05,-0.01 0.38,-0.04 0.43,-0.04l4.15 10.21c-0.06,0 -0.4,0.03 -0.46,0.04 -8.82,0.55 -17,3.86 -23.59,9.16 -0.1,0.08 -0.21,0.17 -0.31,0.25 -0.16,0.13 -0.33,0.27 -0.49,0.41l-0.01 0.01 -0.01 0.01 -0.01 0.01 -0.01 0.01 -0.01 0.01c-0.04,0.04 -0.09,0.07 -0.13,0.1 -3.74,3.08 -6.81,6.83 -9.1,11.01 -4.62,8.45 -6.01,18.67 -3.08,28.65 2.93,9.98 9.62,17.83 18.07,22.44 4.48,2.45 9.45,3.99 14.62,4.46 11.25,0.93 21.86,-2.69 29.98,-9.35 0.39,-0.32 0.78,-0.65 1.17,-0.99l4.15 10.22c-10.08,7.72 -22.95,11.81 -36.54,10.6z"/>
   </g>
   <g>
    <path class="fil1" d="M149.07 16.79l-8.09 0 0 47.27 8.09 0 0 -47.27zm11.22 9.45c2.92,0 5.1,-2.11 5.1,-5.1 0,-2.92 -2.18,-5.1 -5.1,-5.1 -2.92,0 -5.22,2.18 -5.22,5.1 0,2.99 2.24,5.1 5.22,5.1zm3.98 4.04l-8.15 0 0 33.77 8.15 0 0 -33.77zm24.28 -7.53c1.49,0 3.3,0.44 5.41,1.37l2.55 -6.34c-2.99,-1.55 -6.03,-2.3 -9.08,-2.3 -8.02,0 -13.43,4.73 -13.43,13.25l0 1.55 -5.35 0 0 6.84 5.35 0 0 26.93 8.09 0 0 -26.93 10.57 0 0 -6.84 -10.57 0 0 -1.37c0,-3.98 2.3,-6.16 6.47,-6.16z"/>
    <path class="fil1" d="M126.48 47.14c0,2.92 -0.93,5.35 -2.8,7.34 -1.87,1.99 -4.76,2.99 -7.68,2.99 -2.92,0 -5.3,-0.98 -7.15,-2.99 -1.82,-1.97 -2.74,-4.42 -2.74,-7.34 0,-2.86 0.92,-5.3 2.74,-7.28 1.85,-2.01 4.23,-2.99 7.15,-2.99 2.92,0 5.82,0.99 7.68,2.99 1.87,1.99 2.8,4.42 2.8,7.28l0 0zm-0.19 -13.72c-3.02,-2.6 -6.72,-3.94 -11.01,-3.94 -4.79,0 -9.36,1.68 -12.53,4.98 -3.17,3.3 -4.73,7.53 -4.73,12.56 0,5.04 1.56,9.33 4.73,12.75 3.17,3.42 7.68,5.1 12.53,5.1 4.42,0 7.69,-1.28 11.01,-3.93l0 3.12 7.71 0 0 -33.77 -7.71 0 0 3.14z"/>
   </g>
   <path class="fil1" d="M218.17 64.81c3.42,0 6.28,-1 8.46,-2.92 2.18,-1.93 3.3,-4.29 3.3,-7.09 0,-3.61 -1.87,-6.41 -5.66,-8.4 -0.93,-0.5 -2.43,-1.18 -4.35,-1.99l-3.79 -1.74c-1.8,-0.87 -2.74,-2.24 -2.74,-4.04 0,-2.3 1.74,-4.23 4.91,-4.23 2.98,0 5.35,1.31 7.03,3.92l3.73 -3.3c-1.99,-3.48 -6.16,-5.35 -10.39,-5.35 -3.17,0 -5.78,0.87 -7.71,2.61 -1.93,1.74 -2.86,3.92 -2.86,6.59 0,3.48 1.68,6.16 4.98,7.96 0.75,0.44 2.11,1.06 4.17,1.93 2.05,0.87 3.36,1.49 4.04,1.87 2.12,1.18 3.17,2.67 3.17,4.48 0,2.55 -2.43,4.79 -6.09,4.79 -3.05,0 -6.16,-1.8 -8.09,-5.35l-4.23 2.92c2.49,4.91 7.15,7.34 12.13,7.34zm22.94 -0.75l0 -18.6c0,-3.05 0.85,-5.55 2.55,-7.46 1.72,-1.94 3.98,-2.92 6.78,-2.92 5.16,0 8.65,3.67 8.65,10.39l0 18.6 5.53 0 0 -20.15c0,-4.54 -1.24,-7.96 -3.79,-10.39 -2.55,-2.43 -5.66,-3.61 -9.33,-3.61 -4.54,0 -8.52,1.93 -10.57,4.98l0 -17.91 -5.35 0 0 47.08 5.54 0zm28.58 -16.67c0,4.91 1.62,9.08 4.91,12.44 3.29,3.36 7.46,5.04 12.5,5.04 5.04,0 9.21,-1.68 12.5,-5.04 3.29,-3.36 4.91,-7.53 4.91,-12.44 0,-4.85 -1.7,-8.94 -4.98,-12.31 -3.31,-3.4 -7.4,-5.1 -12.44,-5.1 -5.04,0 -9.19,1.7 -12.5,5.1 -3.28,3.37 -4.91,7.46 -4.91,12.31zm29.23 0c0,3.42 -1.12,6.35 -3.42,8.77 -2.3,2.42 -5.1,3.61 -8.4,3.61 -3.3,0 -6.1,-1.18 -8.4,-3.61 -2.3,-2.42 -3.42,-5.35 -3.42,-8.77 0,-3.36 1.12,-6.22 3.42,-8.64 2.3,-2.42 5.1,-3.67 8.4,-3.67 3.3,0 6.1,1.24 8.4,3.67 2.3,2.42 3.42,5.29 3.42,8.64zm28.27 -17.41c-4.97,0 -9.02,1.99 -12.06,5.91l0 -5.1 -5.54 0 0 46.96 5.54 0 0 -18.6c2.98,3.79 6.97,5.72 11.94,5.72 4.79,0 8.79,-1.67 11.94,-5.04 3.19,-3.4 4.79,-7.53 4.79,-12.38 0,-4.85 -1.62,-8.96 -4.79,-12.38 -3.17,-3.42 -7.09,-5.1 -11.82,-5.1zm-0.62 29.79c-3.55,0 -6.38,-1.15 -8.52,-3.55 -2.15,-2.39 -3.17,-5.35 -3.17,-8.83 0,-3.42 1.06,-6.35 3.17,-8.71 2.17,-2.43 4.98,-3.61 8.52,-3.61 3.48,0 6.27,1.2 8.46,3.61 2.16,2.38 3.23,5.29 3.23,8.71 0,3.48 -1.04,6.42 -3.23,8.83 -2.16,2.38 -4.98,3.55 -8.46,3.55z"/>
  </g>
 </g>
</svg>
